<svg width="1529" height="205" viewBox="0 0 1529 205" fill="none" xmlns="http://www.w3.org/2000/svg">
<path d="M355.05 58.3705H289.714V40.2337H355.05V58.3705ZM362.921 17.6618H272.948V99H255V9.10819C254.992 7.88394 255.233 6.67093 255.709 5.54419C256.169 4.46699 256.808 3.47617 257.598 2.61381C258.412 1.80247 259.374 1.15705 260.432 0.713011C261.579 0.234183 262.81 -0.00819858 264.053 0.00021159H363L362.921 17.6618Z" fill="white"/>
<path d="M504.999 89.9281C505.016 91.1738 504.774 92.4094 504.287 93.5568C503.824 94.6297 503.182 95.6166 502.388 96.4755C501.524 97.2426 500.533 97.8563 499.461 98.2898C498.335 98.7668 497.123 99.0084 495.9 98.9998H435.611C431.699 99.0088 427.798 98.5855 423.98 97.7376C415.971 96.1275 408.492 92.5482 402.222 87.3249C398.959 84.5912 396.107 81.403 393.756 77.8588C391.247 73.9809 389.327 69.7543 388.059 65.3162C386.651 60.1763 385.958 54.8675 386.002 49.5394V0H403.962V49.4605C403.802 53.8262 404.445 58.1843 405.861 62.3186C407.094 65.5627 408.948 68.5367 411.321 71.0748C413.318 73.3523 415.736 75.2268 418.441 76.5966C420.752 77.8548 423.193 78.8599 425.721 79.5942C427.749 80.1427 429.81 80.5642 431.892 80.8564H435.452H486.802V0H504.841L504.999 89.9281Z" fill="white"/>
<path d="M637 98.9991H536.056C534.812 99.0164 533.579 98.7746 532.434 98.2892C531.38 97.874 530.418 97.2578 529.599 96.4749C528.809 95.6159 528.17 94.6291 527.709 93.5562C527.225 92.4088 526.984 91.1732 527.001 89.9275V0H544.954V81.0136H637V98.9991Z" fill="white"/>
<path d="M770 98.9998H669.056C667.813 99.0082 666.582 98.7668 665.434 98.2898C664.381 97.8746 663.418 97.2584 662.599 96.4755C661.809 95.6166 661.17 94.6297 660.709 93.5568C660.225 92.4095 659.984 91.1738 660.001 89.9281V0H677.953V81.0142H770V98.9998Z" fill="white"/>
<path d="M955.05 58.3708H889.714V40.1549H955.05V58.3708ZM962.921 17.6623H872.948V99H855V9.10878C854.992 6.70964 855.926 4.40434 857.598 2.69364C858.385 1.83093 859.353 1.1547 860.432 0.71366C861.576 0.226278 862.809 -0.0164505 864.052 0.000865333H963L962.921 17.6623Z" fill="white"/>
<path d="M1112 60.4885C1112.07 66.2052 1111 71.8785 1108.84 77.1717C1106.89 82.085 1103.96 86.5503 1100.24 90.2969C1096.49 94.0271 1092.04 96.9821 1087.14 98.9943C1081.91 101.02 1076.34 102.039 1070.73 101.999H1027.34C1021.71 102.04 1016.11 101.021 1010.85 98.9943C1005.95 97.006 1001.5 94.0494 997.754 90.3004C994.014 86.5514 991.063 82.0866 989.08 77.1717C986.987 71.8625 985.942 66.1967 986.003 60.4885V41.5123C985.942 35.8298 986.987 30.19 989.08 24.9082C991.049 19.9861 994.003 15.5195 997.758 11.7831C1001.51 8.05286 1005.96 5.09784 1010.85 3.08567C1016.1 0.994743 1021.7 -0.0526354 1027.34 0.00203496H1070.73C1076.35 -0.0524801 1081.93 0.995077 1087.14 3.08567C1092.04 5.09784 1096.49 8.05286 1100.24 11.7831C1104.05 15.617 1106.98 20.2289 1108.84 25.3036C1111 30.5691 1112.07 36.2166 1112 41.9077V60.4885ZM1094.01 41.5123C1094.05 38.2224 1093.49 34.9529 1092.35 31.8662C1091.27 29.1096 1089.63 26.606 1087.54 24.5112C1085.45 22.4163 1082.95 20.7752 1080.2 19.6898C1077.18 18.5505 1073.97 17.9874 1070.73 18.0294H1027.34C1024.09 17.9868 1020.85 18.5498 1017.8 19.6898C1015.02 20.7663 1012.49 22.4086 1010.38 24.5129C1008.27 26.5874 1006.62 29.0959 1005.57 31.8662C1004.43 34.9529 1003.87 38.2224 1003.91 41.5123V60.4885C1003.86 63.779 1004.42 67.0499 1005.57 70.1347C1006.62 72.9287 1008.26 75.4633 1010.38 77.567C1012.5 79.6483 1015.02 81.2641 1017.8 82.3111C1020.85 83.4511 1024.09 84.0141 1027.34 83.9715H1070.58C1073.83 84.0141 1077.07 83.4511 1080.12 82.3111C1082.91 81.2738 1085.44 79.6505 1087.55 77.5503C1089.66 75.45 1091.3 72.9215 1092.35 70.1347C1093.5 67.0499 1094.06 63.779 1094.01 60.4885V41.5123Z" fill="white"/>
<path d="M1243 99H1160.06C1156.26 99.0042 1152.5 98.1687 1149.06 96.5527C1147.2 95.6954 1145.43 94.6365 1143.8 93.3949C1142.09 92.0155 1140.56 90.4239 1139.24 88.6582C1137.93 86.6255 1136.9 84.4207 1136.18 82.1057C1135.36 79.4213 1134.96 76.6244 1135 73.8165V25.1863C1135.04 23.411 1135.23 21.642 1135.55 19.8969C1135.97 17.9371 1136.6 16.0304 1137.44 14.2129C1138.27 12.2879 1139.35 10.4827 1140.66 8.8446C1141.99 7.11098 1143.58 5.59334 1145.37 4.34473C1147.35 2.9816 1149.52 1.91768 1151.81 1.18691C1154.48 0.362251 1157.26 -0.0373039 1160.06 0.00273669H1243V18.0022H1160.06C1159.09 17.9297 1158.12 18.053 1157.2 18.3649C1156.29 18.6768 1155.44 19.171 1154.72 19.818C1154.06 20.5693 1153.56 21.4461 1153.25 22.3957C1152.94 23.3453 1152.83 24.3482 1152.91 25.3441V73.8954C1152.78 75.8546 1153.43 77.7849 1154.72 79.2637C1155.44 79.9107 1156.29 80.4048 1157.2 80.7167C1158.12 81.0287 1159.09 81.152 1160.06 81.0795H1243V99Z" fill="white"/>
<path d="M1384 89.9281C1384.02 91.1738 1383.78 92.4094 1383.29 93.5568C1382.83 94.6297 1382.2 95.6166 1381.41 96.4755C1380.56 97.2426 1379.57 97.8563 1378.51 98.2898C1377.4 98.7668 1376.19 99.0084 1374.98 98.9998H1315.24C1311.37 99.0088 1307.5 98.5855 1303.72 97.7376C1295.75 96.2056 1288.3 92.6483 1282.08 87.4038C1278.84 84.6701 1276.02 81.4819 1273.69 77.9377C1271.19 74.069 1269.28 69.8398 1268.04 65.3951C1266.61 60.2627 1265.93 54.9486 1266.01 49.6182V0.0788861H1283.8V49.5394C1283.7 53.9144 1284.39 58.2714 1285.84 62.3975C1287.1 65.6037 1288.91 68.5661 1291.17 71.1536C1293.21 73.3984 1295.63 75.2671 1298.31 76.6755C1300.6 77.9337 1303.02 78.9388 1305.52 79.6731C1307.53 80.2216 1309.57 80.6431 1311.64 80.9353H1315.16H1366.05V0H1384V89.9281Z" fill="white"/>
<path d="M1528.99 69.5441C1529.03 72.7697 1528.57 75.9818 1527.65 79.074C1526.89 81.8705 1525.7 84.529 1524.1 86.9499C1522.68 89.0605 1520.92 90.9232 1518.9 92.463C1517.01 93.9115 1514.97 95.1526 1512.82 96.1647C1510.72 97.097 1508.52 97.8096 1506.27 98.2912C1504.28 98.7463 1502.24 98.9839 1500.2 99H1407.96V80.6492H1500.35C1501.81 80.7325 1503.26 80.509 1504.62 79.9933C1505.98 79.4776 1507.21 78.6812 1508.24 77.6563C1510.2 75.5092 1511.25 72.6846 1511.16 69.7804C1511.2 68.2213 1510.93 66.6703 1510.37 65.2124C1509.91 63.861 1509.15 62.6256 1508.16 61.5895C1507.21 60.5923 1506.06 59.8131 1504.77 59.3055C1503.35 58.7232 1501.82 58.4287 1500.27 58.4391H1435.81C1432.63 58.4165 1429.46 57.912 1426.43 56.9427C1423.02 55.8328 1419.84 54.1259 1417.04 51.9021C1414.04 49.4164 1411.59 46.3311 1409.86 42.8449C1407.84 38.5909 1406.87 33.9216 1407.02 29.2196C1406.86 24.5422 1407.84 19.8963 1409.86 15.673C1411.59 12.1868 1414.04 9.10148 1417.04 6.61575C1419.8 4.33423 1422.99 2.6212 1426.43 1.57518C1429.46 0.5862 1432.62 0.0552722 1435.81 0H1520V17.957H1435.74C1434.28 17.9033 1432.83 18.1481 1431.47 18.6765C1430.11 19.2048 1428.88 20.0053 1427.85 21.0286C1425.98 23.22 1424.99 26.0279 1425.08 28.9045C1424.97 31.7847 1425.96 34.6008 1427.85 36.7804C1428.89 37.7784 1430.13 38.5571 1431.49 39.0711C1432.84 39.585 1434.29 39.8237 1435.74 39.7733H1500.27C1504.64 39.9118 1508.94 40.9297 1512.9 42.7661C1515.06 43.8267 1517.1 45.1209 1518.97 46.6253C1520.94 48.2082 1522.67 50.0649 1524.1 52.1384C1525.69 54.5745 1526.91 57.2275 1527.73 60.0143C1528.63 63.1098 1529.05 66.3223 1528.99 69.5441Z" fill="white"/>
<g fill="white" fill-opacity="0.45">
<path d="M314 204H300.285L276.772 182.349C275.722 181.347 274.915 180.116 274.412 178.751C273.91 177.386 273.725 175.924 273.872 174.477C273.863 173.292 274.102 172.119 274.575 171.033C275.048 169.948 275.743 168.975 276.616 168.178L297.933 147H310.787L286.334 170.619L285.55 171.327L284.845 172.115L284.218 172.902L283.747 173.847C283.747 173.847 283.747 174.398 283.747 174.791C283.92 175.835 284.301 176.833 284.867 177.726C285.432 178.619 286.171 179.388 287.039 179.988L314 204ZM260 204V147.315H270.659V204H260Z"/>
<path d="M378 203.522H367.086L367.564 160.384C367.564 159.203 367.564 158.574 366.688 158.574C366.688 158.574 366.688 158.574 366.289 158.967V159.44L365.812 160.148C365.608 160.411 365.447 160.703 365.333 161.014L341.434 198.641L339.602 201.239C338.859 202.012 337.965 202.628 336.973 203.05C335.526 203.709 333.946 204.032 332.353 203.994C330.707 204.048 329.071 203.725 327.573 203.05C326.395 202.467 325.464 201.491 324.944 200.295C324.546 199.035 324.227 198.09 324.068 197.303C323.977 196.282 323.977 195.255 324.068 194.233V147.002H334.583V189.274C334.583 191.006 334.583 191.793 335.619 191.793C335.634 191.61 335.634 191.425 335.619 191.242C335.587 191.086 335.587 190.925 335.619 190.77L358.721 153.378C359.759 151.426 361.23 149.731 363.023 148.419C364.601 147.457 366.427 146.965 368.281 147.002C374.176 147.002 377.044 150.466 377.044 157.235L378 203.522Z"/>
<path d="M441.059 147V155.539H408.334C407.204 155.386 406.058 155.668 405.124 156.33C404.435 157.258 404.126 158.419 404.263 159.571V170.561H431.116C433.002 170.337 434.913 170.605 436.667 171.338C438.421 172.072 439.96 173.247 441.137 174.751C443.248 178.526 444.227 182.838 443.956 187.164C444.178 191.477 443.231 195.769 441.216 199.577C440.084 201.122 438.569 202.338 436.823 203.101C435.077 203.865 433.163 204.149 431.273 203.926H401.914C400.81 204.01 399.701 203.842 398.669 203.433C397.638 203.024 396.712 202.385 395.959 201.564C395.207 200.744 394.647 199.762 394.323 198.692C393.998 197.623 393.917 196.493 394.085 195.387V155.855C393.917 154.749 393.998 153.62 394.323 152.55C394.647 151.48 395.207 150.499 395.959 149.678C396.712 148.857 397.638 148.218 398.669 147.809C399.701 147.4 400.81 147.232 401.914 147.316L441.059 147ZM425.793 179.1H404.263V191.039C404.118 192.191 404.427 193.356 405.124 194.28C406.043 194.977 407.193 195.288 408.334 195.15H425.793C426.805 195.24 427.825 195.11 428.784 194.769C429.743 194.428 430.618 193.884 431.351 193.173C432.4 191.276 432.951 189.14 432.951 186.967C432.951 184.794 432.4 182.657 431.351 180.76C430.597 180.097 429.71 179.605 428.751 179.319C427.792 179.032 426.783 178.958 425.793 179.1Z"/>
<path d="M504 195.402V204H466.867C461.36 204 459 201.134 459 195.402V155.598C459 149.866 461.675 147 466.867 147H503.685V155.598H473.397C472.236 155.447 471.061 155.73 470.093 156.394C469.473 157.361 469.196 158.511 469.306 159.658V170.723H502.898V179.321H469.306V191.024C469.183 192.171 469.461 193.326 470.093 194.288C471.047 194.987 472.226 195.299 473.397 195.163L504 195.402Z"/>
<path d="M518.092 204V155.603C517.911 154.461 517.998 153.292 518.346 152.19C518.694 151.087 519.295 150.081 520.099 149.252C520.904 148.423 521.89 147.793 522.98 147.413C524.07 147.033 525.234 146.913 526.379 147.063H554.631C557.127 146.983 559.609 147.469 561.891 148.486C563.807 149.353 565.387 150.825 566.389 152.677C567.397 154.442 568.091 156.368 568.441 158.371C568.853 160.667 569.038 162.998 568.993 165.33C569.031 167.714 568.846 170.097 568.441 172.447C568.053 174.465 567.362 176.411 566.389 178.22C565.336 180.012 563.768 181.445 561.891 182.332C559.616 183.379 557.133 183.892 554.631 183.835H528.825V204H518.092ZM528.825 175.294H549.343C550.587 175.488 551.859 175.381 553.054 174.983C554.248 174.584 555.33 173.904 556.209 173.001C557.648 170.629 558.284 167.856 558.024 165.093C558.339 162.326 557.698 159.535 556.209 157.185C555.323 156.295 554.237 155.631 553.043 155.246C551.849 154.861 550.581 154.766 549.343 154.971H532.85C531.711 154.833 530.562 155.114 529.614 155.761C528.954 156.704 528.672 157.862 528.825 159.004V175.294Z"/>
<path d="M628 203.992H604.696C600.692 204.083 596.709 203.384 592.966 201.935C590 200.673 587.462 198.555 585.664 195.841C583.954 193.104 582.744 190.074 582.09 186.899C581.336 183.15 580.972 179.33 581.003 175.504C580.964 171.676 581.328 167.856 582.09 164.108C582.729 160.928 583.94 157.896 585.664 155.166C587.418 152.412 589.97 150.283 592.966 149.072C596.699 147.587 600.689 146.887 604.696 147.015H627.145V155.561H609.667C607.126 155.158 604.531 155.294 602.045 155.961C599.558 156.629 597.234 157.813 595.218 159.439C592.184 164.102 590.863 169.708 591.49 175.266C590.863 180.825 592.184 186.43 595.218 191.093C597.172 192.708 599.421 193.91 601.835 194.63C604.249 195.35 606.779 195.574 609.279 195.287H627.689L628 203.992Z"/>
<path d="M652.86 204H642.096V155.623C641.908 154.466 641.997 153.281 642.354 152.165C642.712 151.049 643.329 150.033 644.155 149.201C644.98 148.368 645.992 147.743 647.106 147.375C648.22 147.007 649.405 146.908 650.565 147.085H684.597C685.745 146.936 686.912 147.056 688.005 147.436C689.098 147.815 690.088 148.445 690.894 149.274C691.701 150.103 692.304 151.108 692.653 152.21C693.002 153.313 693.089 154.481 692.907 155.623V204H682.223V159.496C682.333 158.357 682.054 157.215 681.431 156.255C680.481 155.608 679.328 155.327 678.186 155.465H656.896C655.755 155.327 654.602 155.608 653.652 156.255C652.99 157.198 652.707 158.355 652.86 159.496V204Z"/>
<path d="M735.964 146.011C740.472 145.922 744.974 146.379 749.376 147.371C752.669 148.128 755.718 149.725 758.24 152.014C760.783 154.49 762.579 157.655 763.417 161.138C764.569 165.848 765.096 170.693 764.986 175.546C765.083 180.424 764.556 185.294 763.417 190.033C762.56 193.462 760.764 196.571 758.24 198.998C755.718 201.286 752.669 202.884 749.376 203.64C740.523 205.453 731.405 205.453 722.551 203.64C719.29 202.977 716.242 201.491 713.688 199.318C711.164 196.891 709.368 193.782 708.511 190.353C707.405 185.61 706.904 180.74 707.021 175.866C706.889 171.017 707.39 166.172 708.511 161.459C709.349 157.976 711.145 154.81 713.688 152.334C716.209 150.046 719.259 148.448 722.551 147.692C726.941 146.592 731.443 146.027 735.964 146.011ZM721.531 159.298C718.458 164.219 717.129 170.066 717.766 175.866C717.134 181.64 718.464 187.46 721.531 192.354C723.498 194.028 725.778 195.274 728.233 196.017C730.687 196.76 733.265 196.985 735.807 196.676C738.337 196.988 740.903 196.765 743.346 196.021C745.788 195.278 748.054 194.029 750.004 192.354C753.136 187.486 754.496 181.652 753.847 175.866C754.508 170.054 753.148 164.19 750.004 159.298C748.054 157.622 745.788 156.374 743.346 155.631C740.903 154.887 738.337 154.664 735.807 154.975C733.265 154.667 730.687 154.892 728.233 155.635C725.778 156.378 723.498 157.624 721.531 159.298Z"/>
<path d="M779.087 204V155.568C778.915 154.461 778.998 153.33 779.33 152.26C779.662 151.189 780.235 150.206 781.005 149.385C781.775 148.563 782.723 147.924 783.778 147.515C784.833 147.105 785.968 146.937 787.098 147.021H816.338C818.873 146.933 821.394 147.42 823.709 148.446C825.667 149.293 827.277 150.772 828.275 152.64C829.334 154.389 830.041 156.324 830.358 158.338C830.807 160.632 831.021 162.965 830.998 165.302C831.013 167.691 830.798 170.075 830.358 172.424C830.001 174.453 829.296 176.406 828.275 178.201C827.226 180.011 825.629 181.45 823.709 182.316C821.402 183.372 818.879 183.886 816.338 183.82H790.142V204H779.087ZM789.982 175.273H810.811C812.074 175.468 813.365 175.361 814.578 174.961C815.79 174.562 816.888 173.882 817.78 172.978C819.241 170.605 819.887 167.83 819.623 165.064C819.943 162.296 819.292 159.503 817.78 157.151C816.88 156.261 815.779 155.596 814.567 155.21C813.355 154.825 812.067 154.731 810.811 154.935H794.068C792.912 154.797 791.745 155.078 790.783 155.726C790.113 156.67 789.827 157.828 789.982 158.971V175.273Z"/>
<path d="M872.764 204H862.079V155.55H840V147H895V155.55H872.921L872.764 204Z"/>
<path d="M960 203.522H949.166L949.641 160.384C949.641 159.203 949.64 158.574 948.771 158.574C948.708 158.545 948.641 158.531 948.573 158.531C948.505 158.531 948.437 158.545 948.375 158.574L947.98 158.967V159.44L947.505 160.148C947.303 160.411 947.143 160.703 947.031 161.014L923.307 198.641L921.488 201.239C920.75 202.012 919.862 202.628 918.878 203.05C917.442 203.709 915.873 204.032 914.292 203.994C912.658 204.048 911.034 203.725 909.547 203.05C908.377 202.467 907.453 201.491 906.937 200.295C906.937 199.035 906.225 198.09 906.067 197.303C905.978 196.282 905.978 195.255 906.067 194.233V147.002H916.822V189.274C916.822 191.006 916.822 191.793 917.85 191.793C917.865 191.61 917.865 191.425 917.85 191.242C917.818 191.086 917.818 190.925 917.85 190.77L940.783 153.378C941.813 151.426 943.273 149.731 945.054 148.419C946.62 147.457 948.433 146.965 950.273 147.002C956.046 147.002 958.972 150.466 958.972 157.235L960 203.522Z"/>
<path d="M986.628 179.418V190.884C986.466 191.447 986.457 192.043 986.603 192.61C986.75 193.177 987.045 193.695 987.46 194.109C987.874 194.523 988.392 194.819 988.96 194.965C989.527 195.111 990.124 195.102 990.687 194.94H1007.47C1008.51 195.051 1009.57 194.949 1010.58 194.64C1011.58 194.332 1012.52 193.824 1013.32 193.146C1014 192.326 1014.5 191.378 1014.79 190.359C1015.09 189.34 1015.17 188.271 1015.04 187.218C1015.23 185.06 1014.65 182.903 1013.4 181.134C1012.74 180.431 1011.92 179.889 1011.01 179.551C1010.11 179.213 1009.13 179.087 1008.17 179.184L986.628 179.418ZM986.628 159.84V170.994H1008.01C1008.89 171.106 1009.77 171.009 1010.6 170.711C1011.43 170.412 1012.17 169.921 1012.78 169.278C1013.89 167.483 1014.38 165.373 1014.18 163.272C1014.34 161.286 1013.81 159.307 1012.7 157.656C1012.11 156.988 1011.37 156.474 1010.54 156.161C1009.71 155.848 1008.82 155.745 1007.94 155.862H990.687C989.048 155.862 987.955 155.862 987.487 156.642C986.837 157.516 986.532 158.599 986.628 159.684V159.84ZM1017.15 175.44C1023 175.986 1025.97 180.276 1025.97 188.466C1026.2 192.458 1025.22 196.428 1023.16 199.854C1021.93 201.337 1020.35 202.487 1018.57 203.197C1016.78 203.906 1014.84 204.151 1012.93 203.91H984.287C983.155 204.058 982.004 203.939 980.926 203.565C979.848 203.19 978.872 202.569 978.076 201.751C977.281 200.933 976.687 199.94 976.342 198.853C975.998 197.765 975.912 196.612 976.091 195.486V156.486C975.912 155.359 975.998 154.206 976.342 153.119C976.687 152.031 977.281 151.039 978.076 150.221C978.872 149.403 979.848 148.782 980.926 148.407C982.004 148.032 983.155 147.914 984.287 148.062H1013.09C1020.89 148.062 1025.26 153.132 1025.26 163.662C1025.26 170.916 1022.61 174.972 1017.46 175.674L1017.15 175.44Z"/>
<path d="M1092 147V204H1081.25V178.904H1051.67V204H1041V147H1051.67V170.75H1081.25V147H1092Z"/>
<path d="M1175 203.932H1164.35V147H1175V203.932ZM1108.09 147H1118.82V169.773H1145.02C1146.94 169.535 1148.9 169.821 1150.67 170.6C1152.45 171.379 1153.99 172.623 1155.12 174.201C1157.24 178.036 1158.22 182.397 1157.96 186.773C1158.2 191.173 1157.22 195.554 1155.12 199.425C1154.02 201.005 1152.52 202.258 1150.77 203.051C1149.02 203.845 1147.08 204.149 1145.18 203.932H1116.38C1115.23 204.082 1114.07 203.962 1112.98 203.582C1111.89 203.202 1110.9 202.572 1110.1 201.743C1109.29 200.914 1108.69 199.908 1108.35 198.806C1108 197.703 1107.91 196.534 1108.09 195.392V147ZM1139.65 178.629H1118.82V191.043C1118.82 192.704 1118.82 193.811 1119.61 194.285C1120.55 194.967 1121.7 195.277 1122.85 195.155H1139.65C1140.69 195.259 1141.73 195.12 1142.7 194.75C1143.68 194.379 1144.55 193.787 1145.25 193.02C1146.53 191.109 1147.14 188.83 1146.99 186.536C1147.19 184.249 1146.6 181.963 1145.33 180.052C1144.58 179.349 1143.68 178.828 1142.69 178.526C1141.71 178.225 1140.67 178.152 1139.65 178.313V178.629Z"/>
<path d="M1246 203.524H1234.91L1235.31 160.583C1235.31 159.407 1235.31 158.78 1234.52 158.78C1234.44 158.746 1234.36 158.728 1234.28 158.728C1234.2 158.728 1234.12 158.746 1234.04 158.78V159.172V159.642L1233.57 160.348C1233.36 160.609 1233.2 160.9 1233.09 161.21L1209.33 198.666L1207.51 201.252C1206.77 202.021 1205.89 202.635 1204.9 203.054C1203.46 203.71 1201.89 204.032 1200.31 203.994C1198.67 204.048 1197.04 203.726 1195.56 203.054C1194.4 202.453 1193.48 201.488 1192.94 200.311C1192.55 199.058 1192.23 198.117 1192.07 197.334C1191.91 196.55 1192.07 195.531 1192.07 194.278V147.262H1202.92V189.341C1202.92 191.065 1202.92 191.848 1203.87 191.848C1203.91 191.668 1203.91 191.481 1203.87 191.3V190.83L1226.84 153.609C1227.89 151.659 1229.38 149.971 1231.19 148.672C1232.73 147.703 1234.52 147.212 1236.34 147.262C1242.2 147.262 1245.05 150.709 1245.05 157.448L1246 203.524ZM1211.23 133C1211.7 134.654 1212.76 136.08 1214.23 137.005C1215.69 137.93 1217.44 138.29 1219.15 138.015C1220.86 138.239 1222.59 137.859 1224.04 136.941C1225.49 136.023 1226.56 134.627 1227.07 133H1234.91C1234.16 136.433 1232.19 139.488 1229.37 141.62C1226.09 143.529 1222.32 144.454 1218.52 144.284C1214.87 144.779 1211.17 143.891 1208.16 141.798C1205.15 139.705 1203.05 136.562 1202.29 133H1211.23Z"/>
<path d="M1341 204H1327.34L1303.8 182.349C1302.75 181.347 1301.94 180.116 1301.43 178.751C1300.93 177.386 1300.75 175.924 1300.89 174.477C1300.88 173.292 1301.12 172.119 1301.6 171.033C1302.07 169.948 1302.77 168.975 1303.64 168.178L1324.99 147H1338.25L1313.76 170.619L1312.98 171.327L1312.27 172.115L1311.65 172.902L1311.17 173.847C1311.17 173.847 1311.17 174.398 1311.17 174.791C1311.35 175.835 1311.73 176.833 1312.3 177.726C1312.86 178.619 1313.6 179.388 1314.47 179.988L1341 204ZM1287 204V147.315H1297.83V204H1287Z"/>
<path d="M1348 203.892L1369.85 151.421C1370.38 149.89 1371.34 148.544 1372.6 147.543C1374.35 146.389 1376.42 145.859 1378.5 146.039C1380.55 145.845 1382.61 146.377 1384.32 147.543C1385.64 148.508 1386.63 149.864 1387.15 151.421L1409 203.734H1397.68L1379.84 158.227C1379.82 158.096 1379.82 157.963 1379.84 157.831C1379.29 157.831 1378.89 158.385 1378.5 159.493L1360.66 205L1348 203.892Z"/>
<path d="M1436.95 204H1425.35L1432.29 191.333L1408 147H1419.83L1437.74 181.517L1455.33 147H1467L1436.95 204Z"/>
<path d="M1524.02 147V155.538H1490.91C1489.76 155.4 1488.61 155.681 1487.66 156.329C1487 157.272 1486.71 158.429 1486.87 159.57V170.559H1513.96C1515.87 170.335 1517.8 170.603 1519.58 171.336C1521.35 172.07 1522.91 173.245 1524.1 174.749C1526.23 178.523 1527.23 182.835 1526.95 187.161C1527.24 191.478 1526.27 195.786 1524.18 199.573C1523.04 201.124 1521.51 202.344 1519.74 203.108C1517.97 203.872 1516.03 204.153 1514.12 203.921H1484.41C1483.26 204.071 1482.09 203.951 1481 203.571C1479.91 203.191 1478.91 202.561 1478.11 201.732C1477.3 200.903 1476.7 199.898 1476.35 198.796C1476 197.693 1475.91 196.525 1476.09 195.383V155.854C1475.91 154.713 1476 153.544 1476.35 152.442C1476.7 151.339 1477.3 150.334 1478.11 149.505C1478.91 148.676 1479.91 148.046 1481 147.666C1482.09 147.286 1483.26 147.167 1484.41 147.316L1524.02 147ZM1508.18 179.097H1486.87V191.035C1486.87 192.695 1486.87 193.802 1487.66 194.276C1488.6 194.958 1489.75 195.268 1490.91 195.146H1508.57C1509.6 195.241 1510.63 195.114 1511.6 194.773C1512.57 194.431 1513.46 193.884 1514.2 193.169C1515.49 191.356 1516.11 189.145 1515.94 186.924C1516.16 184.735 1515.57 182.541 1514.28 180.757C1513.5 180.083 1512.59 179.585 1511.61 179.298C1510.62 179.012 1509.59 178.943 1508.57 179.097H1508.18Z"/>
</g>
<path d="M0 0.000976562H205L163.099 42.001H0V0.000976562Z" fill="#6632FA"/>
<path d="M0 81V205L42 163.169V81H0Z" fill="#6632FA"/>
<path d="M123 81H81V123H123V81Z" fill="#6632FA"/>
</svg>
