<svg xmlns="http://www.w3.org/2000/svg" fill="none" viewBox="0 0 1216 168"><path fill="#fff" d="M275.89 45.45h-50.861V31.406h50.861V45.45Zm6.217-31.515h-70.172v62.921H198V7.021c0-.965.179-1.876.536-2.733a7.377 7.377 0 0 1 1.447-2.251 6.91 6.91 0 0 1 2.251-1.501A7.177 7.177 0 0 1 205.021 0h77.086v13.935ZM391.87 69.835c0 1-.178 1.93-.536 2.787a6.9 6.9 0 0 1-1.5 2.251 7.378 7.378 0 0 1-2.251 1.447 7.039 7.039 0 0 1-2.734.536h-46.752c-2.966 0-5.967-.321-9.004-.965a41.493 41.493 0 0 1-8.844-2.947 38.974 38.974 0 0 1-7.985-5.145c-2.501-2.073-4.699-4.52-6.593-7.343-1.858-2.859-3.323-6.11-4.394-9.755-1.072-3.68-1.608-7.77-1.608-12.273V0h13.935v38.428c0 3.93.536 7.253 1.607 9.969 1.108 2.715 2.502 4.984 4.181 6.806 1.679 1.823 3.519 3.252 5.52 4.288 2.001 1.036 3.895 1.805 5.681 2.305 1.823.5 3.413.822 4.77.965 1.394.107 2.305.16 2.734.16h39.839V0h13.934v69.835ZM495.048 76.856h-78.594a7.17 7.17 0 0 1-2.787-.536 7.366 7.366 0 0 1-2.251-1.447 7.358 7.358 0 0 1-1.447-2.25 7.16 7.16 0 0 1-.536-2.788V0h13.934v62.921h71.681v13.935ZM598.226 76.856h-78.594a7.17 7.17 0 0 1-2.787-.536 7.366 7.366 0 0 1-2.251-1.447 7.358 7.358 0 0 1-1.447-2.25 7.16 7.16 0 0 1-.536-2.788V0h13.934v62.921h71.681v13.935ZM741.974 45.45l-50.86.025V31.433l50.86-.026V45.45Zm6.218-31.515-70.172.026v62.92h-13.935V7.048c0-.965.179-1.876.536-2.734a7.377 7.377 0 0 1 1.447-2.25 6.899 6.899 0 0 1 2.251-1.501 7.177 7.177 0 0 1 2.787-.536L748.192 0v13.935ZM863.662 46.843c0 4.68-.804 8.986-2.412 12.916-1.607 3.93-3.841 7.325-6.699 10.183-2.858 2.859-6.253 5.092-10.183 6.7-3.895 1.572-8.147 2.358-12.756 2.358h-33.701c-4.609 0-8.879-.786-12.809-2.358-3.931-1.608-7.325-3.841-10.183-6.7-2.859-2.858-5.11-6.252-6.754-10.183-1.607-3.93-2.411-8.236-2.411-12.916V32.157c0-4.645.804-8.932 2.411-12.863 1.644-3.966 3.895-7.36 6.754-10.183 2.858-2.858 6.252-5.091 10.183-6.7C789.032.805 793.302 0 797.911 0h33.701c4.609 0 8.861.804 12.756 2.412 3.93 1.608 7.325 3.84 10.183 6.7 2.858 2.822 5.092 6.216 6.699 10.182 1.608 3.93 2.412 8.218 2.412 12.863v14.686Zm-13.935-14.686c0-2.75-.446-5.234-1.34-7.45-.857-2.25-2.09-4.162-3.698-5.734-1.572-1.608-3.483-2.84-5.734-3.698-2.216-.893-4.663-1.34-7.343-1.34h-33.701c-2.715 0-5.199.447-7.45 1.34-2.215.857-4.127 2.09-5.734 3.698-1.608 1.572-2.859 3.484-3.752 5.735-.858 2.215-1.286 4.698-1.286 7.45v14.685c0 2.75.428 5.252 1.286 7.503.893 2.215 2.144 4.127 3.752 5.735 1.607 1.572 3.519 2.805 5.734 3.698 2.251.857 4.735 1.286 7.45 1.286h33.594c2.715 0 5.181-.429 7.396-1.286 2.251-.893 4.18-2.126 5.788-3.698 1.608-1.608 2.841-3.52 3.698-5.735.894-2.251 1.34-4.752 1.34-7.503V32.157ZM965.52 76.856h-64.733c-1.287 0-2.68-.143-4.181-.429a23.414 23.414 0 0 1-4.395-1.447 21.355 21.355 0 0 1-4.126-2.465 18.34 18.34 0 0 1-3.538-3.698c-1-1.465-1.804-3.144-2.412-5.038-.607-1.93-.911-4.091-.911-6.485V19.562c0-1.286.143-2.662.429-4.127.322-1.5.804-2.965 1.447-4.394a19.424 19.424 0 0 1 2.519-4.18 17.18 17.18 0 0 1 3.698-3.484c1.465-1.037 3.145-1.858 5.038-2.466C896.249.304 898.393 0 900.787 0h64.733v13.935h-64.733c-1.822 0-3.216.482-4.181 1.447-.964.965-1.447 2.394-1.447 4.288v37.624c0 1.786.483 3.18 1.447 4.18 1.001.965 2.394 1.447 4.181 1.447h64.733v13.935ZM1075.28 69.835c0 1-.17 1.93-.53 2.787a6.996 6.996 0 0 1-1.5 2.251c-.65.608-1.4 1.09-2.25 1.447-.86.358-1.77.536-2.74.536l-46.75.052c-2.97 0-5.97-.322-9-.965a41.501 41.501 0 0 1-8.85-2.948 39.014 39.014 0 0 1-7.983-5.145c-2.501-2.072-4.698-4.52-6.592-7.343-1.858-2.858-3.323-6.11-4.395-9.754-1.072-3.68-1.608-7.771-1.608-12.273V.05h13.935V38.48c0 3.93.536 7.254 1.608 9.97 1.108 2.715 2.505 4.984 4.185 6.806 1.67 1.822 3.51 3.252 5.52 4.288 2 1.036 3.89 1.804 5.68 2.304 1.82.5 3.41.822 4.77.965 1.39.107 2.3.16 2.73.16l39.84-.05V0h13.93v69.835ZM1187.68 54.239c0 2.751-.36 5.234-1.07 7.45-.68 2.18-1.59 4.109-2.74 5.788a18.279 18.279 0 0 1-4.02 4.288 24.275 24.275 0 0 1-4.77 2.894c-1.64.75-3.32 1.304-5.04 1.661-1.67.358-3.26.536-4.77.536h-71.78V62.921h71.78c2.68 0 4.76-.786 6.22-2.358 1.5-1.572 2.25-3.68 2.25-6.324 0-1.286-.19-2.466-.59-3.537-.39-1.072-.96-2.001-1.71-2.788-.72-.786-1.61-1.393-2.68-1.822-1.04-.428-2.2-.643-3.49-.643h-50.07c-2.26 0-4.69-.393-7.29-1.179-2.61-.822-5.04-2.126-7.29-3.913-2.22-1.786-4.08-4.126-5.58-7.02-1.46-2.895-2.19-6.432-2.19-10.612s.73-7.7 2.19-10.559c1.5-2.894 3.36-5.234 5.58-7.02 2.25-1.823 4.68-3.127 7.29-3.913C1110.51.41 1112.94 0 1115.2 0h65.46v13.935h-65.46c-2.65 0-4.72.804-6.22 2.412-1.47 1.607-2.2 3.733-2.2 6.378 0 2.68.73 4.805 2.2 6.377 1.5 1.537 3.57 2.305 6.22 2.305h50.18c1.5.036 3.09.25 4.77.643 1.68.358 3.34.93 4.99 1.715a23.16 23.16 0 0 1 4.77 3.002c1.5 1.179 2.82 2.608 3.96 4.287 1.18 1.68 2.11 3.609 2.79 5.789.68 2.18 1.02 4.645 1.02 7.396Z"></path><path fill="currentColor" d="M241.659 159h-7.938l-20.349-16.947c-2.016-1.68-3.024-3.591-3.024-5.733 0-1.68.903-3.297 2.709-4.851l18.648-16.569h7.623l-20.79 18.207a7.233 7.233 0 0 1-.693.567c-.294.252-.525.462-.693.63a8.97 8.97 0 0 0-.504.567c-.21.21-.357.441-.441.693a2.378 2.378 0 0 0-.126.756c0 1.05.987 2.373 2.961 3.969L241.659 159Zm-39.564 0v-44.1h5.859V159h-5.859Zm88.498 0h-5.859l.189-36.603c0-.924-.168-1.386-.504-1.386-.42 0-1.029.651-1.827 1.953l-20.412 32.571c-.63.966-1.113 1.659-1.449 2.079-.336.42-.903.84-1.701 1.26-.798.42-1.743.63-2.835.63-3.402 0-5.103-2.1-5.103-6.3V114.9h5.859l-.126 36.036c0 1.302.21 1.953.63 1.953.336 0 .777-.441 1.323-1.323l20.097-32.382c1.092-1.764 2.1-3.003 3.024-3.717.924-.714 2.058-1.071 3.402-1.071 3.528 0 5.292 2.247 5.292 6.741V159Zm49.634-44.1v4.788H313.83c-1.176 0-1.953.21-2.331.63-.378.42-.567 1.197-.567 2.331v11.403h21.672c3.696 0 6.258 1.071 7.686 3.213 1.428 2.1 2.142 5.145 2.142 9.135 0 4.032-.714 7.14-2.142 9.324-1.386 2.184-3.906 3.276-7.56 3.276h-21.483c-2.016 0-3.549-.462-4.599-1.386-1.05-.966-1.575-2.583-1.575-4.851v-31.626c0-2.268.525-3.864 1.575-4.788 1.05-.966 2.583-1.449 4.599-1.449h28.98Zm-10.269 23.94h-19.026v12.348c0 1.134.189 1.932.567 2.394.378.42 1.155.63 2.331.63h16.128c2.478 0 4.158-.609 5.04-1.827.882-1.26 1.323-3.255 1.323-5.985 0-2.73-.441-4.662-1.323-5.796-.84-1.176-2.52-1.764-5.04-1.764ZM389.375 159h-27.531c-4.116 0-6.174-2.079-6.174-6.237v-31.626c0-2.268.525-3.864 1.575-4.788 1.05-.966 2.583-1.449 4.599-1.449h27.279v4.788h-24.696c-1.176 0-1.953.21-2.331.63-.378.42-.567 1.197-.567 2.331v11.403h26.964v4.788h-26.964v12.348c0 1.134.189 1.932.567 2.394.378.42 1.155.63 2.331.63h24.948V159Zm18.444 0h-5.859v-38.178c0-2.184.483-3.717 1.449-4.599 1.008-.882 2.499-1.323 4.473-1.323h20.223c4.2 0 7.119 1.134 8.757 3.402 1.68 2.226 2.52 5.586 2.52 10.08 0 4.662-.819 8.127-2.457 10.395-1.638 2.268-4.578 3.402-8.82 3.402h-20.286V159Zm0-21.609h18.207c2.94 0 4.872-.693 5.796-2.079.966-1.428 1.449-3.738 1.449-6.93 0-3.066-.483-5.271-1.449-6.615-.966-1.386-2.898-2.079-5.796-2.079h-15.372c-1.176 0-1.953.21-2.331.63-.336.42-.504 1.176-.504 2.268v14.805ZM487.157 159h-18.018c-2.856 0-5.376-.378-7.56-1.134-2.184-.756-3.948-1.785-5.292-3.087-1.344-1.302-2.457-2.898-3.339-4.788a25.02 25.02 0 0 1-1.764-6.048c-.294-2.1-.441-4.452-.441-7.056 0-3.318.273-6.216.819-8.694a21.027 21.027 0 0 1 2.835-6.867c1.344-2.1 3.276-3.696 5.796-4.788 2.52-1.092 5.607-1.638 9.261-1.638h17.073v4.788h-15.12c-5.418 0-9.198 1.344-11.34 4.032-2.142 2.646-3.213 7.035-3.213 13.167s1.05 10.563 3.15 13.293c2.1 2.688 5.796 4.032 11.088 4.032h16.065V159Zm17.918 0h-5.859v-37.863c0-2.268.525-3.864 1.575-4.788 1.05-.966 2.583-1.449 4.599-1.449h24.633c2.058 0 3.612.483 4.662 1.449 1.05.924 1.575 2.52 1.575 4.788V159h-5.859v-36.351c0-1.134-.21-1.911-.63-2.331-.378-.42-1.155-.63-2.331-.63h-19.467c-1.176 0-1.953.21-2.331.63-.378.42-.567 1.197-.567 2.331V159Zm66.388-44.604c8.148 0 13.839 1.659 17.073 4.977 3.276 3.318 4.914 9.177 4.914 17.577 0 8.4-1.638 14.259-4.914 17.577-3.234 3.318-8.925 4.977-17.073 4.977-8.106 0-13.797-1.659-17.073-4.977-3.276-3.318-4.914-9.177-4.914-17.577 0-8.4 1.638-14.259 4.914-17.577 3.276-3.318 8.967-4.977 17.073-4.977Zm-12.6 8.631c-2.184 2.52-3.276 7.161-3.276 13.923 0 6.762 1.092 11.424 3.276 13.986 2.226 2.52 6.426 3.78 12.6 3.78 6.174 0 10.353-1.26 12.537-3.78 2.226-2.562 3.339-7.224 3.339-13.986 0-6.762-1.113-11.403-3.339-13.923-2.184-2.562-6.363-3.843-12.537-3.843s-10.374 1.281-12.6 3.843ZM612.544 159h-5.859v-38.178c0-2.184.483-3.717 1.449-4.599 1.008-.882 2.499-1.323 4.473-1.323h20.223c4.2 0 7.119 1.134 8.757 3.402 1.68 2.226 2.52 5.586 2.52 10.08 0 4.662-.819 8.127-2.457 10.395-1.638 2.268-4.578 3.402-8.82 3.402h-20.286V159Zm0-21.609h18.207c2.94 0 4.872-.693 5.796-2.079.966-1.428 1.449-3.738 1.449-6.93 0-3.066-.483-5.271-1.449-6.615-.966-1.386-2.898-2.079-5.796-2.079h-15.372c-1.176 0-1.953.21-2.331.63-.336.42-.504 1.176-.504 2.268v14.805ZM676.322 159h-5.859v-39.312h-17.829V114.9h41.517v4.788h-17.829V159Zm67.736 0h-5.859l.189-36.603c0-.924-.168-1.386-.504-1.386-.42 0-1.029.651-1.827 1.953l-20.412 32.571c-.63.966-1.113 1.659-1.449 2.079-.336.42-.903.84-1.701 1.26-.798.42-1.743.63-2.835.63-3.402 0-5.103-2.1-5.103-6.3V114.9h5.859l-.126 36.036c0 1.302.21 1.953.63 1.953.336 0 .777-.441 1.323-1.323l20.097-32.382c1.092-1.764 2.1-3.003 3.024-3.717.924-.714 2.058-1.071 3.402-1.071 3.528 0 5.292 2.247 5.292 6.741V159Zm20.339-19.845v11.781c0 1.302.168 2.184.504 2.646.378.42 1.176.63 2.394.63h16.002c2.394 0 4.053-.567 4.977-1.701.966-1.176 1.449-3.108 1.449-5.796 0-2.478-.441-4.347-1.323-5.607-.84-1.302-2.373-1.953-4.599-1.953h-19.404Zm0-16.632v11.844h18.711c2.352 0 3.927-.567 4.725-1.701.84-1.134 1.26-3.087 1.26-5.859 0-2.352-.399-4.116-1.197-5.292-.798-1.218-2.247-1.827-4.347-1.827h-16.317c-1.05 0-1.785.21-2.205.63-.42.378-.63 1.113-.63 2.205Zm24.759 14.238c2.352.294 4.032 1.26 5.04 2.898 1.05 1.596 1.575 4.032 1.575 7.308 0 3.696-.693 6.636-2.079 8.82-1.386 2.142-3.885 3.213-7.497 3.213h-21.42c-1.974 0-3.507-.441-4.599-1.323-1.092-.882-1.638-2.478-1.638-4.788v-31.752c0-4.158 1.932-6.237 5.796-6.237h21.42c6.3 0 9.45 3.99 9.45 11.97 0 5.838-2.016 9.051-6.048 9.639v.252Zm57.648-21.861V159h-5.859v-20.16h-25.767V159h-5.859v-44.1h5.859v19.152h25.767V114.9h5.859Zm62.219 44.1h-5.859v-44.1h5.859V159Zm-47.754-44.1h5.859v18.837h21.042c3.696 0 6.258 1.092 7.686 3.276 1.428 2.142 2.142 5.229 2.142 9.261 0 4.032-.714 7.161-2.142 9.387-1.386 2.226-3.906 3.339-7.56 3.339h-20.853c-4.116 0-6.174-1.974-6.174-5.922V114.9Zm24.255 23.625h-18.396v12.663c0 1.134.189 1.932.567 2.394.378.42 1.155.63 2.331.63h15.498c2.478 0 4.158-.63 5.04-1.89.882-1.302 1.323-3.318 1.323-6.048s-.441-4.704-1.323-5.922c-.84-1.218-2.52-1.827-5.04-1.827ZM962.995 159h-5.859l.189-36.603c0-.924-.168-1.386-.504-1.386-.42 0-1.029.651-1.827 1.953l-20.412 32.571c-.63.966-1.113 1.659-1.449 2.079-.336.42-.903.84-1.701 1.26-.798.42-1.743.63-2.835.63-3.402 0-5.103-2.1-5.103-6.3V114.9h5.859l-.126 36.036c0 1.302.21 1.953.63 1.953.336 0 .777-.441 1.323-1.323l20.097-32.382c1.092-1.764 2.1-3.003 3.024-3.717.924-.714 2.058-1.071 3.402-1.071 3.528 0 5.292 2.247 5.292 6.741V159Zm-19.845-49.77c3.486 0 5.607-1.302 6.363-3.906h4.914c-1.218 5.166-4.977 7.749-11.277 7.749-6.342 0-10.101-2.583-11.277-7.749h4.914c.714 2.604 2.835 3.906 6.363 3.906Zm94.89 49.77h-7.94l-20.34-16.947c-2.02-1.68-3.03-3.591-3.03-5.733 0-1.68.9-3.297 2.71-4.851l18.65-16.569h7.62l-20.79 18.207c-.12.126-.36.315-.69.567a8.85 8.85 0 0 0-1.2 1.197c-.21.21-.36.441-.44.693-.08.252-.13.504-.13.756 0 1.05.99 2.373 2.97 3.969L1038.04 159Zm-39.561 0v-44.1h5.861V159h-5.861Zm46.791 0 17.08-40.572c.58-1.428 1.28-2.457 2.08-3.087.79-.63 1.97-.945 3.52-.945 1.56 0 2.73.315 3.53.945.8.588 1.49 1.617 2.08 3.087L1090.63 159h-6.23l-15.25-37.674a1.88 1.88 0 0 1-.19-.315c-.04-.21-.08-.336-.12-.378-.05-.084-.11-.189-.19-.315a.626.626 0 0 0-.32-.252c-.08-.042-.21-.063-.38-.063-.46 0-.86.441-1.19 1.323L1051.51 159h-6.24Zm68.32 0h-6.36l4.66-8.631-19.34-35.469h6.49l15.87 29.988 15.12-29.988h6.43l-22.87 44.1Zm67.77-44.1v4.788h-26.39c-1.18 0-1.96.21-2.33.63-.38.42-.57 1.197-.57 2.331v11.403h21.67c3.7 0 6.26 1.071 7.69 3.213 1.42 2.1 2.14 5.145 2.14 9.135 0 4.032-.72 7.14-2.14 9.324-1.39 2.184-3.91 3.276-7.56 3.276h-21.49c-2.01 0-3.55-.462-4.6-1.386-1.05-.966-1.57-2.583-1.57-4.851v-31.626c0-2.268.52-3.864 1.57-4.788 1.05-.966 2.59-1.449 4.6-1.449h28.98Zm-10.27 23.94h-19.02v12.348c0 1.134.19 1.932.57 2.394.37.42 1.15.63 2.33.63h16.12c2.48 0 4.16-.609 5.04-1.827.89-1.26 1.33-3.255 1.33-5.985 0-2.73-.44-4.662-1.33-5.796-.84-1.176-2.52-1.764-5.04-1.764ZM0 .01h159l-32.523 32.522H0V.01ZM0 62.646v96.364l32.523-32.523v-63.84H0ZM62.636 62.646h32.523v32.523H62.636z"></path></svg>